<?xml version="1.0" standalone="no"?>
<!DOCTYPE svg PUBLIC "-//W3C//DTD SVG 20010904//EN"
 "http://www.w3.org/TR/2001/REC-SVG-20010904/DTD/svg10.dtd">
<svg version="1.0" xmlns="http://www.w3.org/2000/svg"
 width="200.000000pt" height="200.000000pt" viewBox="0 0 200.000000 200.000000"
 preserveAspectRatio="xMidYMid meet">
<metadata>
Created by potrace 1.14, written by Peter Selinger 2001-2017
</metadata>
<g transform="translate(0.000000,200.000000) scale(0.100000,-0.100000)"
fill="#000000" stroke="none">
<path d="M991 1414 c-136 -36 -287 -152 -356 -272 -16 -28 -34 -52 -38 -52 -4
0 -19 11 -32 25 -18 17 -25 35 -25 62 -1 114 -96 196 -226 196 -116 -1 -188
-60 -214 -178 -13 -58 -2 -75 49 -75 35 0 37 -2 48 -42 32 -116 118 -192 261
-228 30 -8 42 -16 42 -29 0 -19 39 -61 58 -61 18 0 15 -15 -13 -70 -29 -58
-31 -82 -8 -121 23 -39 73 -62 120 -54 99 17 129 52 139 163 l7 72 327 0 327
0 5 -73 c7 -115 49 -157 154 -160 48 -1 58 2 86 30 40 40 42 91 5 154 l-27 45
36 13 c38 14 67 61 58 97 -3 13 7 27 35 45 22 15 47 46 60 71 25 52 28 116 6
124 -8 3 -46 -10 -86 -30 -39 -20 -79 -36 -88 -36 -10 0 -29 27 -51 73 -25 53
-55 93 -115 153 -85 86 -161 131 -265 159 -69 19 -209 18 -279 -1z m326 -78
l62 -28 -67 -84 -67 -84 -115 0 -115 0 -67 84 -66 84 26 12 c84 40 137 50 242
47 89 -3 114 -8 167 -31z m-913 -44 c44 -26 66 -63 75 -124 9 -65 31 -104 69
-120 15 -7 28 -13 30 -14 1 0 -3 -24 -9 -51 -9 -38 -19 -55 -39 -67 -26 -15
-32 -15 -95 5 -80 25 -139 73 -171 144 l-24 50 23 5 c15 4 22 13 22 30 0 24
-4 25 -67 30 l-67 5 18 40 c38 85 149 116 235 67z m483 -85 c85 -106 83 -93
27 -185 l-49 -82 -122 0 c-68 0 -123 2 -123 5 0 24 48 138 76 182 33 52 118
143 133 143 4 0 30 -28 58 -63z m614 2 c60 -62 120 -168 134 -237 l7 -33 -123
3 -122 3 -48 78 c-27 43 -49 81 -49 84 0 10 125 163 134 163 4 0 35 -28 67
-61z m-214 -199 l42 -70 -194 0 c-107 0 -195 2 -195 5 0 5 21 40 66 113 14 21
21 22 127 22 l112 0 42 -70z m512 -36 c-29 -31 -69 -53 -86 -47 -20 7 -16 43
5 43 9 0 35 9 57 19 49 22 56 19 24 -15z m-93 -119 c4 -8 1 -22 -6 -30 -19
-23 -1121 -23 -1140 0 -10 12 -10 18 0 30 11 13 87 15 577 15 494 0 564 -2
569 -15z m-976 -164 c0 -72 -22 -106 -76 -114 -79 -13 -94 28 -43 118 30 54
32 55 75 55 l44 0 0 -59z m909 0 c36 -68 38 -82 12 -105 -14 -13 -28 -15 -60
-10 -53 8 -67 29 -75 112 l-7 62 49 0 49 0 32 -59z"/>
<path d="M301 1246 c-16 -19 -6 -36 20 -36 15 0 20 6 17 22 -4 27 -21 33 -37
14z"/>
</g>
</svg>
